<svg width="13" height="14" viewBox="0 0 13 14" fill="none" xmlns="http://www.w3.org/2000/svg">
<path d="M6.8257 0.62561C3.24887 0.62561 0.658752 3.40074 0.658752 7.22425C0.658752 10.9861 3.46472 13.8229 7.19572 13.8229C10.3409 13.8229 11.9443 12.1578 12.4993 11.4486L12.6535 11.2328L10.6492 9.35185L10.4642 9.56769C9.78584 10.3386 8.82997 11.1094 7.19572 11.1094C5.37647 11.1094 3.86557 9.78353 3.58805 8.02595H12.8385L12.8693 7.77927C12.9002 7.5326 12.9002 7.34759 12.9002 7.22425C12.9002 3.46241 10.2792 0.62561 6.8257 0.62561ZM3.8964 5.37416C4.38976 4.14077 5.56148 3.30823 6.91821 3.30823C8.12077 3.30823 9.29248 4.17161 9.72417 5.37416H3.8964Z" fill="#3D3D3F"/>
</svg>
