<svg width="41" height="26" viewBox="0 0 41 26" fill="none" xmlns="http://www.w3.org/2000/svg">
<path fill-rule="evenodd" clip-rule="evenodd" d="M9.79449 16.209C10.0234 15.5407 10.1092 14.698 10.1092 13.3031C10.1092 11.908 10.0234 11.0943 9.79449 10.3969C9.33633 9.00202 8.27684 8.3043 6.75973 8.3043C5.24208 8.3043 4.21128 9.03086 3.75339 10.3969C3.52417 11.1526 3.43811 12.0535 3.43811 13.3031C3.43811 14.5818 3.52417 15.4825 3.75339 16.209C4.21128 17.5751 5.24208 18.3305 6.75973 18.3305C8.27684 18.3305 9.33633 17.6039 9.79449 16.209ZM10.3955 20.2778C10.224 20.2778 10.1092 20.1616 10.1092 19.9871V18.6505H10.0808C9.42239 19.7545 8.24843 20.5972 6.18682 20.5972C3.81076 20.5972 2.14995 19.4638 1.46284 17.2551C1.09073 16.1511 0.976257 15.0468 0.976257 13.3031C0.976257 11.5885 1.09073 10.484 1.46284 9.37971C2.14995 7.17093 3.81076 6.03756 6.18682 6.03756C8.24843 6.03756 9.42239 6.85147 10.0808 7.95544H10.1092V0.806646C10.1092 0.632218 10.224 0.515747 10.3955 0.515747H12.2279C12.3998 0.515747 12.5142 0.632218 12.5142 0.806646V19.9871C12.5142 20.1616 12.3998 20.2778 12.2279 20.2778H10.3955ZM24.3112 15.7733V14.2328C24.3112 14.1167 24.2538 14.0584 24.1393 14.0584H21.3909C19.0143 14.0584 17.9835 14.7561 17.9835 16.3252C17.9835 17.7494 19.0143 18.5051 20.8467 18.5051C22.9941 18.5051 24.3112 17.4879 24.3112 15.7733ZM24.6546 20.2777C24.4828 20.2777 24.3683 20.1615 24.3683 19.9871V18.7666H24.3396C23.7099 19.8126 22.364 20.5974 20.274 20.5974C17.6687 20.5974 15.6645 19.2317 15.6645 16.4125C15.6645 13.4775 17.6687 12.1114 21.0185 12.1114H24.1393C24.2538 12.1114 24.3112 12.0535 24.3112 11.937V10.9198C24.3112 9.00193 23.5664 8.18803 21.0185 8.18803C19.4724 8.18803 18.499 8.59484 17.6972 9.17636C17.5543 9.29255 17.3824 9.29255 17.2964 9.14697L16.5232 7.81033C16.4377 7.6359 16.4661 7.51971 16.5806 7.40351C17.6114 6.58988 19.2148 6.03776 21.2475 6.03776C25.1414 6.03776 26.6301 7.34528 26.6301 10.7748V19.9871C26.6301 20.1615 26.5157 20.2777 26.3438 20.2777H24.6546ZM30.3532 25.5087C30.1813 25.5087 30.0668 25.3925 30.0668 25.2181V23.5326C30.0668 23.3582 30.1813 23.242 30.3532 23.242H30.8687C31.9853 23.242 32.5863 22.7481 33.1877 21.1494L33.6458 19.871L28.6066 6.6477C28.5492 6.47355 28.6353 6.35708 28.8355 6.35708H30.8397C31.0116 6.35708 31.1261 6.44443 31.1834 6.6477L34.7908 16.7033H34.8482L38.3127 6.6477C38.3698 6.44443 38.4846 6.35708 38.6561 6.35708H40.6033C40.7748 6.35708 40.8893 6.47355 40.8319 6.6477L35.4208 21.3532C34.2182 24.6369 33.159 25.5087 31.0976 25.5087H30.3532Z" fill="#3D3D3F"/>
</svg>
