<svg width="14" height="20" viewBox="0 0 14 20" fill="none" xmlns="http://www.w3.org/2000/svg">
<path d="M10.5868 1.70483C9.56924 0.995627 8.39752 0.62561 7.07163 0.62561C5.93074 0.62561 4.85152 0.903123 3.95731 1.42731C1.95306 2.59903 0.719666 4.81914 0.719666 7.19341C0.719666 9.59852 1.92222 11.757 3.95731 12.9287C4.85152 13.4529 6.02324 13.7612 7.1333 13.7612C8.39752 13.7612 9.5384 13.422 10.4943 12.7437V12.8362C10.4943 14.2237 10.3093 15.1488 9.87759 15.7963C9.32256 16.6288 8.39752 17.0605 7.16413 17.0605C5.22154 17.0605 4.17316 16.0122 3.40229 15.0254L3.21728 14.7788L1.02801 16.8139L1.15135 16.9989C2.01473 18.3556 4.14232 19.9282 7.28747 19.9282C9.72341 19.9282 11.7277 18.7873 12.7761 16.783C13.3002 15.7655 13.5161 14.5012 13.5161 12.682V0.872289H10.5868V1.70483ZM10.4943 9.38268C9.75425 10.3386 8.61336 10.9244 7.44164 10.9244C5.34488 10.9244 3.71064 9.29018 3.71064 7.22425C3.71064 5.09665 5.25237 3.52408 7.3183 3.52408C8.52086 3.52408 9.72341 4.10994 10.4943 5.06581V9.38268Z" fill="#3D3D3F"/>
</svg>
