<svg width="50" height="21" viewBox="0 0 50 21" fill="none" xmlns="http://www.w3.org/2000/svg">
<path fill-rule="evenodd" clip-rule="evenodd" d="M11.8339 6.41522C11.8339 4.26467 10.431 2.92776 8.02602 2.92776H3.67413C3.55966 2.92776 3.50229 2.98599 3.50229 3.10219V9.72825C3.50229 9.84445 3.55966 9.90241 3.67413 9.90241H8.02602C10.431 9.90241 11.8339 8.56577 11.8339 6.41522ZM1.24043 20.2774C1.06885 20.2774 0.954102 20.1612 0.954102 19.9868V0.80633C0.954102 0.632179 1.06885 0.515708 1.24043 0.515708H8.16917C11.9197 0.515708 14.3534 2.84068 14.3534 6.41522C14.3534 9.98976 11.9197 12.3145 8.16917 12.3145H3.67413C3.55966 12.3145 3.50229 12.3727 3.50229 12.4889V19.9868C3.50229 20.1612 3.38781 20.2774 3.21597 20.2774H1.24043ZM20.2812 20.4229C17.8759 20.4229 16.9311 19.2605 16.9311 16.7611V0.806524C16.9311 0.632096 17.0456 0.515625 17.2174 0.515625H19.0498C19.2217 0.515625 19.3362 0.632096 19.3362 0.806524V16.6157C19.3362 17.7782 19.7656 18.1559 20.7104 18.1559H21.2546C21.4262 18.1559 21.5406 18.2721 21.5406 18.4465V20.132C21.5406 20.3065 21.4262 20.4229 21.2546 20.4229H20.2812ZM32.0204 15.7731V14.2326C32.0204 14.1165 31.9631 14.0582 31.8486 14.0582H29.1001C26.7235 14.0582 25.6927 14.7559 25.6927 16.325C25.6927 17.7492 26.7235 18.5049 28.5559 18.5049C30.7033 18.5049 32.0204 17.4877 32.0204 15.7731ZM32.3638 20.2775C32.192 20.2775 32.0775 20.1613 32.0775 19.9868V18.7664H32.0488C31.4191 19.8124 30.0733 20.5972 27.9833 20.5972C25.378 20.5972 23.3738 19.2314 23.3738 16.4123C23.3738 13.4772 25.378 12.1112 28.7278 12.1112H31.8486C31.9631 12.1112 32.0204 12.0533 32.0204 11.9368V10.9196C32.0204 9.00173 31.2757 8.18782 28.7278 8.18782C27.1817 8.18782 26.2083 8.59464 25.4064 9.17616C25.2635 9.29235 25.0917 9.29235 25.0056 9.14676L24.2324 7.81012C24.1469 7.63569 24.1753 7.5195 24.2898 7.40331C25.3206 6.58968 26.9241 6.03755 28.9567 6.03755C32.8507 6.03755 34.3394 7.34507 34.3394 10.7746V19.9868C34.3394 20.1613 34.2249 20.2775 34.0531 20.2775H32.3638ZM46.9664 20.2775C46.7946 20.2775 46.6801 20.1613 46.6801 19.9869V11.8495C46.6801 9.61187 45.678 8.30407 43.6164 8.30407C41.7556 8.30407 40.4671 9.64126 40.4671 11.7045V19.9869C40.4671 20.1613 40.3527 20.2775 40.1808 20.2775H38.3484C38.1766 20.2775 38.0621 20.1613 38.0621 19.9869V6.64769C38.0621 6.47354 38.1766 6.35707 38.3484 6.35707H40.1808C40.3527 6.35707 40.4671 6.47354 40.4671 6.64769V7.92637H40.4955C41.1542 6.85124 42.4714 6.03733 44.3322 6.03733C47.3101 6.03733 49.0851 8.1008 49.0851 11.2685V19.9869C49.0851 20.1613 48.9706 20.2775 48.7988 20.2775H46.9664Z" fill="#3D3D3F"/>
</svg>
