<svg width="42" height="31" viewBox="0 0 42 31" fill="none" xmlns="http://www.w3.org/2000/svg">
<path fill-rule="evenodd" clip-rule="evenodd" d="M41.0611 11.4402C40.4568 8.65433 38.9689 6.01988 36.5759 3.98192C30.7287 -0.998307 22.4362 -0.013299 17.7594 5.64412L17.7592 5.6444L17.7589 5.64468L0.772099 26.1931C-0.33001 27.5264 -0.244223 29.0095 0.978642 30.0511C2.20151 31.0927 3.6555 30.9207 4.75761 29.5877L14.9288 17.2837L21.698 9.09553L21.6993 9.09664C21.7146 9.07751 21.7291 9.05782 21.7447 9.03896C21.8373 8.92693 21.9318 8.81878 22.0277 8.71312C22.0433 8.69621 22.0597 8.67984 22.0753 8.66265C25.1794 5.3083 30.0627 5.24757 33.2709 7.97991C33.2709 7.97991 33.29 7.99211 33.3261 8.01236C37.0944 11.2677 36.8942 16.4809 34.2452 19.6852C34.1528 19.797 33.9304 20.0443 33.9146 20.0612C30.8107 23.4156 26.0012 23.4877 22.664 20.7115C21.9673 20.1098 21.4064 19.4412 20.9718 18.7304C20.4505 17.8782 19.2621 17.7923 18.628 18.5615L16.4494 21.2035C17.2024 22.4996 18.1892 23.699 19.414 24.7422C25.2611 29.7222 33.5537 28.7372 38.2304 23.08C38.2304 23.08 41.9684 18.6802 41.0611 11.4402Z" fill="#3D3D3F"/>
</svg>
