<svg width="40" height="30" viewBox="0 0 40 30" fill="none" xmlns="http://www.w3.org/2000/svg">
<path fill-rule="evenodd" clip-rule="evenodd" d="M25.0697 13.442L35.2411 1.13823C36.3432 -0.195079 37.7969 -0.366734 39.0198 0.674568C40.2427 1.71615 40.3287 3.19948 39.2266 4.53252L22.2305 25.0796C17.5538 30.737 9.26096 31.7217 3.41383 26.7418C2.18932 25.6988 1.20251 24.4992 0.44928 23.2033L2.62782 20.5611C3.2622 19.7921 4.45064 19.8781 4.97191 20.7302C5.40658 21.4407 5.97594 22.1115 6.67261 22.7133C9.98413 25.4786 14.8054 25.4179 17.9095 22.0636C17.9136 22.0591 18.1721 21.7693 18.2401 21.6873L25.0697 13.442Z" fill="#3D3D3F"/>
</svg>
