<svg width="13" height="14" viewBox="0 0 13 14" fill="none" xmlns="http://www.w3.org/2000/svg">
<path d="M10.0314 1.70483C9.01382 0.995627 7.84209 0.62561 6.5162 0.62561C5.37531 0.62561 4.2961 0.903123 3.40189 1.42731C1.39764 2.59903 0.164246 4.81914 0.164246 7.19341C0.164246 9.59852 1.3668 11.757 3.40189 12.9287C4.2961 13.4529 5.46782 13.7612 6.57787 13.7612C7.8421 13.7612 9.04465 13.3912 10.0314 12.7128V13.5145H12.9607V0.872289H10.0314V1.70483ZM9.93886 9.38268C9.19882 10.3386 8.05794 10.9244 6.88622 10.9244C4.78945 10.9244 3.15521 9.29018 3.15521 7.22425C3.15521 5.09665 4.69695 3.52408 6.76288 3.52408C7.96544 3.52408 9.16799 4.10994 9.93886 5.06581V9.38268Z" fill="#3D3D3F"/>
</svg>
