<svg width="15" height="16" viewBox="0 0 15 16" fill="none" xmlns="http://www.w3.org/2000/svg">
<path d="M5.02455 10.2784C5.02455 10.9949 5.32555 11.5159 5.79562 11.8768C6.2341 12.2087 6.86859 12.3736 7.53015 12.3736C8.43836 12.3736 9.73103 11.9861 9.73103 10.8579C9.73103 9.75816 8.271 9.53463 7.44816 9.3393C4.49956 8.59981 0.810906 8.51726 0.810906 4.66056C0.810906 1.21855 4.52652 0.282715 7.33798 0.282715C10.4753 0.282715 13.7525 1.19295 13.9165 4.90755H9.594C9.594 4.30407 9.37476 3.91848 8.98692 3.67003C8.60313 3.42146 8.07871 3.31173 7.49903 3.31173C6.73157 3.31173 5.49021 3.39417 5.49021 4.38617C5.49021 5.73365 8.63065 5.98425 10.7801 6.45002C13.6703 7.02971 14.4138 9.12344 14.4138 10.306C14.4138 14.1357 10.78 15.4003 7.55745 15.4003C4.17059 15.4003 0.701286 14.2722 0.560425 10.2784H5.02455Z" fill="#3D3D3F"/>
</svg>
