<svg width="14" height="20" viewBox="0 0 14 20" fill="none" xmlns="http://www.w3.org/2000/svg">
<path d="M11.668 9.49184C11.5138 9.33766 11.3288 9.21432 11.1438 9.12182C11.853 8.25845 12.223 7.1484 12.223 6.00751C12.223 4.49661 11.5447 3.07821 10.3729 2.12233C9.44789 1.35146 8.27617 0.981445 6.73443 0.981445H0.320801V6.00751V8.22761V11.0027V13.8704V19.544H7.53613C9.29371 19.544 10.6196 19.1431 11.6372 18.2797C12.963 17.2005 13.7339 15.5971 13.7339 13.9012C13.7648 12.1745 12.9939 10.5711 11.668 9.49184ZM3.52761 3.97242H6.14857C7.62864 3.97242 8.12199 4.28076 8.39951 4.61995C8.73869 4.98996 8.95453 5.48332 8.95453 6.00751C8.95453 6.5317 8.76952 6.99422 8.39951 7.39507C8.09116 7.73426 7.62864 8.0426 6.14857 8.0426H3.52761V3.97242ZM9.7254 15.6896C9.29371 16.1213 8.64618 16.5222 6.95027 16.5222H3.52761V11.0644H6.98111C8.67702 11.0644 9.29371 11.4653 9.7254 11.8969C10.2188 12.4211 10.4963 13.0995 10.4963 13.7779C10.4963 14.4871 10.2188 15.1654 9.7254 15.6896Z" fill="#3D3D3F"/>
</svg>
