<svg width="15" height="16" viewBox="0 0 15 16" fill="none" xmlns="http://www.w3.org/2000/svg">
<path d="M10.1762 14.9891C10.0114 14.5469 9.95671 14.1051 9.9019 13.6382C8.68829 14.9067 6.89871 15.4003 5.19485 15.4003C2.46583 15.4003 0.319763 14.0223 0.319763 11.0774C0.319763 6.42273 5.38331 6.78486 8.63675 6.12082C9.43218 5.95661 9.87438 5.68065 9.87438 4.79962C9.87438 3.72653 8.57855 3.31173 7.6152 3.31173C6.32275 3.31173 5.49665 3.88938 5.27346 5.10108H0.895724C0.977827 3.22748 1.85908 2.01567 3.1275 1.27506C4.39593 0.558685 6.04498 0.282715 7.67012 0.282715C11.0606 0.282715 14.3344 1.02502 14.3344 5.07378V14.9891H10.1762ZM6.95679 12.5104C9.1853 12.5104 9.92919 11.242 9.81957 8.29644C9.15801 8.70932 7.94767 8.79165 6.92928 9.06829C5.88032 9.31528 4.99941 9.75816 4.99941 10.8853C4.99941 12.0407 5.90795 12.5104 6.95679 12.5104Z" fill="#3D3D3F"/>
</svg>
