<svg width="17" height="11" viewBox="0 0 17 11" fill="none" xmlns="http://www.w3.org/2000/svg">
<path d="M16.2288 2.39574C16.1543 2.3144 16.0525 2.26348 15.9428 2.2527L4.30389 2.0918L3.98208 1.10847C3.75537 0.451129 3.13981 0.0073574 2.44452 0H1.24667C1.04918 0 0.889099 0.160083 0.889099 0.35757C0.889099 0.555056 1.04918 0.71514 1.24667 0.71514H2.44452C2.8333 0.723729 3.17564 0.973367 3.3027 1.3409L5.57327 8.18834L5.3945 8.59954C5.1951 9.11373 5.25498 9.69247 5.5554 10.155C5.85295 10.6092 6.35353 10.8895 6.8963 10.9059H13.851C14.0485 10.9059 14.2086 10.7458 14.2086 10.5483C14.2086 10.3508 14.0485 10.1907 13.851 10.1907H6.89627C6.58975 10.1831 6.30761 10.0218 6.14537 9.76163C5.98494 9.50464 5.95199 9.18803 6.05598 8.90345L6.19902 8.58164L13.7259 7.79498C14.5526 7.70392 15.2327 7.1026 15.4243 6.29318L16.2825 2.69962C16.3212 2.59614 16.3006 2.47975 16.2288 2.39574ZM14.727 6.13231C14.611 6.65335 14.1686 7.03768 13.6365 7.07987L6.19902 7.84864L4.53632 2.80693L15.4958 2.96784L14.727 6.13231Z" fill="#2C2A2B"/>
</svg>
