<svg width="14" height="20" viewBox="0 0 14 20" fill="none" xmlns="http://www.w3.org/2000/svg">
<path d="M10.0951 1.42731C9.20088 0.903123 8.12166 0.62561 6.98078 0.62561C5.65488 0.62561 4.48316 0.995627 3.46562 1.70483V0.903124H0.536316V19.7432H3.55812V12.7745C4.514 13.4529 5.65488 13.792 6.91911 13.792C8.02916 13.792 9.23172 13.4837 10.0951 12.9595C12.1302 11.757 13.3327 9.62936 13.3327 7.22425C13.3636 4.84997 12.0993 2.62987 10.0951 1.42731ZM6.61076 10.9244C5.46988 10.9244 4.32899 10.3386 3.55812 9.38268V5.03498C4.32899 4.0791 5.50071 3.49324 6.7341 3.49324C8.80003 3.49324 10.3418 5.09665 10.3418 7.19341C10.3418 9.29018 8.70752 10.9244 6.61076 10.9244Z" fill="#3D3D3F"/>
</svg>
