<svg width="43" height="30" viewBox="0 0 43 30" fill="none" xmlns="http://www.w3.org/2000/svg">
<path d="M18.8794 0.0753782C19.4824 3.84422 19.7839 7.23618 19.7839 10.2513C19.7839 17.0854 18.201 22.0854 15.0352 25.2513C11.7688 28.4171 6.79397 30 0.110554 30L0.110554 21.7085L0.0351799 21.6332C1.19096 21.6332 2.14573 21.5578 2.8995 21.407C3.75377 21.2563 4.43216 21.005 4.93467 20.6533C5.38694 20.3015 5.78895 19.9246 6.14071 19.5226C6.44222 19.1709 6.66835 18.6181 6.8191 17.8643C6.96985 17.1106 7.04523 16.4573 7.04523 15.9045C7.09548 15.5528 7.12061 14.7739 7.12061 13.5678L0.110555 13.5678L0.110556 0.0753766L18.8794 0.0753782ZM42.0955 -7.90759e-08C42.6985 3.76884 43 7.1608 43 10.1759C43 17.01 41.392 22.01 38.1759 25.1759C35.0101 28.3417 30.0352 29.9246 23.2513 29.9246L23.2513 21.5578C24.3568 21.5578 25.3116 21.4824 26.1156 21.3317C27.0201 21.1809 27.6734 20.9296 28.0754 20.5779C28.6784 20.1256 29.0804 19.7487 29.2814 19.4472C29.5829 19.0955 29.809 18.5427 29.9598 17.7889L30.2613 15.8291L30.2613 13.4925L23.3266 13.4925L23.3266 -1.7199e-06L42.0955 -7.90759e-08Z" fill="white"/>
</svg>
